<?xml version="1.0" encoding="iso-8859-1"?>
<!-- Uploaded to: SVG Repo, www.svgrepo.com, Generator: SVG Repo Mixer Tools -->
<svg height="800px" width="800px" version="1.1" id="Layer_1" xmlns="http://www.w3.org/2000/svg" xmlns:xlink="http://www.w3.org/1999/xlink" 
	 viewBox="0 0 512 512" xml:space="preserve">
<circle style="fill:#FF5B62;" cx="256" cy="256" r="256"/>
<path style="fill:#FAD24D;" d="M90.108,247.007h331.781v203.957c-44.682,38.056-102.598,61.036-165.89,61.036
	s-121.209-22.98-165.891-61.037L90.108,247.007L90.108,247.007z"/>
<circle style="fill:#FFD95E;" cx="256" cy="434.821" r="63.276"/>
<circle style="fill:#EDB937;" cx="256" cy="434.821" r="56.46"/>
<path style="fill:#FFFFFF;" d="M217.925,85.801h76.147c43.917,0,79.829,35.916,79.829,79.831v81.374h-45.467v-81.374
	c0-18.821-15.542-34.364-34.362-34.364h-76.147c-18.82,0-34.362,15.546-34.362,34.364v81.374h-45.467v-81.374
	C138.097,121.715,174.009,85.801,217.925,85.801L217.925,85.801z"/>
<path style="fill:#ECF0F1;" d="M256,122.079l-41.714,0.298c-10.526,0.68-39.65,8.035-40.488,42.582v82.049h9.766v-81.374
	c0-18.819,15.542-34.364,34.362-34.364h76.147c18.82,0,34.362,15.543,34.362,34.364v81.374h9.766v-82.05
	c-0.838-34.546-29.961-41.901-40.488-42.582L256,122.079z"/>
<path style="fill:#EDB937;" d="M226.758,274.649c4.09,0,7.407,3.315,7.407,7.407c0,4.09-3.316,7.407-7.407,7.407
	c-4.09,0-7.407-3.316-7.407-7.407C219.352,277.964,222.668,274.649,226.758,274.649z M285.239,274.649
	c4.09,0,7.407,3.315,7.407,7.407c0,4.09-3.316,7.407-7.407,7.407c-4.09,0-7.407-3.316-7.407-7.407
	C277.832,277.964,281.148,274.649,285.239,274.649z M255.998,274.649c4.09,0,7.407,3.315,7.407,7.407
	c0,4.09-3.316,7.407-7.407,7.407c-4.09,0-7.407-3.316-7.407-7.407C248.591,277.964,251.908,274.649,255.998,274.649z"/>
<path style="fill:#666666;" d="M255.998,411.659c5.331,0,9.65,4.321,9.65,9.649c0,3.432-1.792,6.446-4.491,8.157v23.363
	c0,2.837-2.321,5.157-5.158,5.157h-0.001c-2.837,0-5.157-2.319-5.157-5.157v-23.361c-2.701-1.712-4.492-4.726-4.492-8.158
	C246.349,415.979,250.669,411.659,255.998,411.659L255.998,411.659z"/>
</svg>